<svg xmlns="http://www.w3.org/2000/svg" width="100%" height="268" viewBox="0 0 880 268" fill="none" role="img" preserveAspectRatio="xMidYMid meet">
  <style>
    @media (prefers-reduced-motion: no-preference) {
      .fade { animation: fade 260ms cubic-bezier(.22, 1, .36, 1) both; }
      .rise { animation: rise 420ms cubic-bezier(.22, 1, .36, 1) both; }
      .grow { animation: grow 420ms cubic-bezier(.22, 1, .36, 1) both; }
      .draw { animation: draw 900ms cubic-bezier(.22, 1, .36, 1) both; }
      .bar { animation: bar 420ms cubic-bezier(.22, 1, .36, 1) both; }
      @keyframes fade { from { opacity: 0; transform: translateY(6px); } }
      @keyframes rise { from { opacity: 0; transform: translateY(12px); } }
      @keyframes grow { from { transform: scaleX(0); } }
      @keyframes bar { from { transform: scaleY(0); } }
      @keyframes draw { from { stroke-dashoffset: 1; } }
    }
  </style>
  <rect x="0.5" y="0.5" width="879" height="267" rx="20" fill="#1c1c1e" stroke="#ffffff" stroke-opacity="0.13"/>
  <text x="24" y="36" font-family="-apple-system, BlinkMacSystemFont, 'Segoe UI Variable Display', 'Segoe UI', Roboto, system-ui, sans-serif" font-size="14" font-weight="600" fill="#f5f5f7" letter-spacing="-0.2" class="fade">Contribution Activity</text>
  <text x="24" y="54" font-family="-apple-system, BlinkMacSystemFont, 'Segoe UI Variable Display', 'Segoe UI', Roboto, system-ui, sans-serif" font-size="10" font-weight="400" fill="#86868b" letter-spacing="-0.06" class="fade" style="animation-delay:0.06s">Last 26 weeks · 7-day rolling contributions · 14 up / 12 down · peak 484 · 4-week average</text>
  <line x1="50" y1="92" x2="850" y2="92" stroke="#ffffff" stroke-opacity="0.08"/>
  <text x="40" y="95.5" font-family="-apple-system, BlinkMacSystemFont, 'Segoe UI Variable Display', 'Segoe UI', Roboto, system-ui, sans-serif" font-size="9" font-weight="400" fill="#86868b" text-anchor="end" letter-spacing="-0.05">484</text>
  <line x1="50" y1="157" x2="850" y2="157" stroke="#ffffff" stroke-opacity="0.08"/>
  <text x="40" y="160.5" font-family="-apple-system, BlinkMacSystemFont, 'Segoe UI Variable Display', 'Segoe UI', Roboto, system-ui, sans-serif" font-size="9" font-weight="400" fill="#86868b" text-anchor="end" letter-spacing="-0.05">242</text>
  <line x1="50" y1="222" x2="850" y2="222" stroke="#ffffff" stroke-opacity="0.08"/>
  <text x="40" y="225.5" font-family="-apple-system, BlinkMacSystemFont, 'Segoe UI Variable Display', 'Segoe UI', Roboto, system-ui, sans-serif" font-size="9" font-weight="400" fill="#86868b" text-anchor="end" letter-spacing="-0.05">0</text>
  <g class="rise" style="animation-delay:0.12s">
    <line x1="65.38" y1="213.94" x2="65.38" y2="219.58" stroke="#4dff9a" stroke-width="1.4" stroke-linecap="round"/>
    <rect x="56.38" y="213.94" width="18" height="3.49" rx="1.5" fill="#4dff9a"/>
  </g>
  <g class="rise" style="animation-delay:0.15s">
    <line x1="96.15" y1="204" x2="96.15" y2="213.67" stroke="#4dff9a" stroke-width="1.4" stroke-linecap="round"/>
    <rect x="87.15" y="204" width="18" height="9.67" rx="1.5" fill="#4dff9a"/>
  </g>
  <g class="rise" style="animation-delay:0.18s">
    <line x1="126.92" y1="201.05" x2="126.92" y2="208.03" stroke="#ff7a6b" stroke-width="1.4" stroke-linecap="round"/>
    <rect x="117.92" y="202.66" width="18" height="3.49" rx="1.5" fill="#ff7a6b"/>
  </g>
  <g class="rise" style="animation-delay:0.21s">
    <line x1="157.69" y1="173.38" x2="157.69" y2="182.25" stroke="#ff7a6b" stroke-width="1.4" stroke-linecap="round"/>
    <rect x="148.69" y="178.22" width="18" height="2" rx="1.5" fill="#ff7a6b"/>
  </g>
  <g class="rise" style="animation-delay:0.24s">
    <line x1="188.46" y1="204.27" x2="188.46" y2="212.87" stroke="#ff7a6b" stroke-width="1.4" stroke-linecap="round"/>
    <rect x="179.46" y="204.27" width="18" height="8.6" rx="1.5" fill="#ff7a6b"/>
  </g>
  <g class="rise" style="animation-delay:0.27s">
    <line x1="219.23" y1="216.36" x2="219.23" y2="219.58" stroke="#4dff9a" stroke-width="1.4" stroke-linecap="round"/>
    <rect x="210.23" y="216.36" width="18" height="2.69" rx="1.5" fill="#4dff9a"/>
  </g>
  <g class="rise" style="animation-delay:0.3s">
    <line x1="250" y1="207.23" x2="250" y2="214.21" stroke="#4dff9a" stroke-width="1.4" stroke-linecap="round"/>
    <rect x="241" y="211.26" width="18" height="2.95" rx="1.5" fill="#4dff9a"/>
  </g>
  <g class="rise" style="animation-delay:0.34s">
    <line x1="280.77" y1="212.6" x2="280.77" y2="219.58" stroke="#ff7a6b" stroke-width="1.4" stroke-linecap="round"/>
    <rect x="271.77" y="212.6" width="18" height="2.42" rx="1.5" fill="#ff7a6b"/>
  </g>
  <g class="rise" style="animation-delay:0.37s">
    <line x1="311.54" y1="208.57" x2="311.54" y2="214.21" stroke="#ff7a6b" stroke-width="1.4" stroke-linecap="round"/>
    <rect x="302.54" y="210.45" width="18" height="3.76" rx="1.5" fill="#ff7a6b"/>
  </g>
  <g class="rise" style="animation-delay:0.4s">
    <line x1="342.31" y1="217.7" x2="342.31" y2="220.12" stroke="#4dff9a" stroke-width="1.4" stroke-linecap="round"/>
    <rect x="333.31" y="217.7" width="18" height="2" rx="1.5" fill="#4dff9a"/>
  </g>
  <g class="rise" style="animation-delay:0.43s">
    <line x1="373.08" y1="217.17" x2="373.08" y2="220.66" stroke="#ff7a6b" stroke-width="1.4" stroke-linecap="round"/>
    <rect x="364.08" y="217.17" width="18" height="3.49" rx="1.5" fill="#ff7a6b"/>
  </g>
  <g class="rise" style="animation-delay:0.46s">
    <line x1="403.85" y1="214.48" x2="403.85" y2="221.19" stroke="#4dff9a" stroke-width="1.4" stroke-linecap="round"/>
    <rect x="394.85" y="214.48" width="18" height="6.71" rx="1.5" fill="#4dff9a"/>
  </g>
  <g class="rise" style="animation-delay:0.49s">
    <line x1="434.62" y1="210.45" x2="434.62" y2="214.75" stroke="#ff7a6b" stroke-width="1.4" stroke-linecap="round"/>
    <rect x="425.62" y="213.4" width="18" height="2" rx="1.5" fill="#ff7a6b"/>
  </g>
  <g class="rise" style="animation-delay:0.52s">
    <line x1="465.38" y1="216.63" x2="465.38" y2="222" stroke="#ff7a6b" stroke-width="1.4" stroke-linecap="round"/>
    <rect x="456.38" y="216.63" width="18" height="5.37" rx="1.5" fill="#ff7a6b"/>
  </g>
  <g class="rise" style="animation-delay:0.55s">
    <line x1="496.15" y1="216.9" x2="496.15" y2="222" stroke="#4dff9a" stroke-width="1.4" stroke-linecap="round"/>
    <rect x="487.15" y="216.9" width="18" height="5.1" rx="1.5" fill="#4dff9a"/>
  </g>
  <g class="rise" style="animation-delay:0.58s">
    <line x1="526.92" y1="181.44" x2="526.92" y2="208.84" stroke="#4dff9a" stroke-width="1.4" stroke-linecap="round"/>
    <rect x="517.92" y="181.44" width="18" height="27.4" rx="1.5" fill="#4dff9a"/>
  </g>
  <g class="rise" style="animation-delay:0.61s">
    <line x1="557.69" y1="169.62" x2="557.69" y2="184.67" stroke="#4dff9a" stroke-width="1.4" stroke-linecap="round"/>
    <rect x="548.69" y="170.7" width="18" height="13.97" rx="1.5" fill="#4dff9a"/>
  </g>
  <g class="rise" style="animation-delay:0.64s">
    <line x1="588.46" y1="163.18" x2="588.46" y2="186.81" stroke="#ff7a6b" stroke-width="1.4" stroke-linecap="round"/>
    <rect x="579.46" y="163.18" width="18" height="23.64" rx="1.5" fill="#ff7a6b"/>
  </g>
  <g class="rise" style="animation-delay:0.67s">
    <line x1="619.23" y1="168.01" x2="619.23" y2="189.5" stroke="#4dff9a" stroke-width="1.4" stroke-linecap="round"/>
    <rect x="610.23" y="173.65" width="18" height="15.85" rx="1.5" fill="#4dff9a"/>
  </g>
  <g class="rise" style="animation-delay:0.7s">
    <line x1="650" y1="92" x2="650" y2="164.25" stroke="#4dff9a" stroke-width="1.4" stroke-linecap="round"/>
    <rect x="641" y="92" width="18" height="72.25" rx="1.5" fill="#4dff9a"/>
  </g>
  <g class="rise" style="animation-delay:0.74s">
    <line x1="680.77" y1="93.34" x2="680.77" y2="180.64" stroke="#ff7a6b" stroke-width="1.4" stroke-linecap="round"/>
    <rect x="671.77" y="94.42" width="18" height="86.22" rx="1.5" fill="#ff7a6b"/>
  </g>
  <g class="rise" style="animation-delay:0.77s">
    <line x1="711.54" y1="145.45" x2="711.54" y2="186.55" stroke="#4dff9a" stroke-width="1.4" stroke-linecap="round"/>
    <rect x="702.54" y="145.45" width="18" height="41.1" rx="1.5" fill="#4dff9a"/>
  </g>
  <g class="rise" style="animation-delay:0.8s">
    <line x1="742.31" y1="123.69" x2="742.31" y2="157" stroke="#ff7a6b" stroke-width="1.4" stroke-linecap="round"/>
    <rect x="733.31" y="123.69" width="18" height="33.31" rx="1.5" fill="#ff7a6b"/>
  </g>
  <g class="rise" style="animation-delay:0.83s">
    <line x1="773.08" y1="137.12" x2="773.08" y2="181.98" stroke="#4dff9a" stroke-width="1.4" stroke-linecap="round"/>
    <rect x="764.08" y="143.3" width="18" height="38.68" rx="1.5" fill="#4dff9a"/>
  </g>
  <g class="rise" style="animation-delay:0.86s">
    <line x1="803.85" y1="148.4" x2="803.85" y2="201.86" stroke="#ff7a6b" stroke-width="1.4" stroke-linecap="round"/>
    <rect x="794.85" y="148.4" width="18" height="53.45" rx="1.5" fill="#ff7a6b"/>
  </g>
  <g class="rise" style="animation-delay:0.89s">
    <line x1="834.62" y1="191.11" x2="834.62" y2="191.11" stroke="#4dff9a" stroke-width="1.4" stroke-linecap="round"/>
    <rect x="825.62" y="191.11" width="18" height="2" rx="1.5" fill="#4dff9a"/>
  </g>
  <polyline points="157.69 200.98 188.46 200.71 219.23 203.8 250 205.08 280.77 213.88 311.54 214.21 342.31 214.55 373.08 216.9 403.85 216.76 434.62 216.9 465.38 217.97 496.15 217.03 526.92 208.77 557.69 197.76 588.46 188.96 619.23 178.15 650 155.79 680.77 158.28 711.54 147.93 742.31 143.77 773.08 156.6 803.85 161.9 834.62 173.32" fill="none" stroke="#86868b" stroke-width="1.5" stroke-opacity="0.5" stroke-linecap="round" stroke-linejoin="round" pathLength="1" stroke-dasharray="1" stroke-dashoffset="0" class="draw" style="animation-delay:0.5s"/>
  <text x="65.38" y="244" font-family="-apple-system, BlinkMacSystemFont, 'Segoe UI Variable Display', 'Segoe UI', Roboto, system-ui, sans-serif" font-size="9" font-weight="400" fill="#86868b" text-anchor="middle" letter-spacing="-0.05" class="fade" style="animation-delay:0.9s">Mar</text>
  <text x="188.46" y="244" font-family="-apple-system, BlinkMacSystemFont, 'Segoe UI Variable Display', 'Segoe UI', Roboto, system-ui, sans-serif" font-size="9" font-weight="400" fill="#86868b" text-anchor="middle" letter-spacing="-0.05" class="fade" style="animation-delay:0.95s">Apr</text>
  <text x="311.54" y="244" font-family="-apple-system, BlinkMacSystemFont, 'Segoe UI Variable Display', 'Segoe UI', Roboto, system-ui, sans-serif" font-size="9" font-weight="400" fill="#86868b" text-anchor="middle" letter-spacing="-0.05" class="fade" style="animation-delay:0.99s">May</text>
  <text x="465.38" y="244" font-family="-apple-system, BlinkMacSystemFont, 'Segoe UI Variable Display', 'Segoe UI', Roboto, system-ui, sans-serif" font-size="9" font-weight="400" fill="#86868b" text-anchor="middle" letter-spacing="-0.05" class="fade" style="animation-delay:1.05s">Jun</text>
  <text x="588.46" y="244" font-family="-apple-system, BlinkMacSystemFont, 'Segoe UI Variable Display', 'Segoe UI', Roboto, system-ui, sans-serif" font-size="9" font-weight="400" fill="#86868b" text-anchor="middle" letter-spacing="-0.05" class="fade" style="animation-delay:1.1s">Jul</text>
  <text x="711.54" y="244" font-family="-apple-system, BlinkMacSystemFont, 'Segoe UI Variable Display', 'Segoe UI', Roboto, system-ui, sans-serif" font-size="9" font-weight="400" fill="#86868b" text-anchor="middle" letter-spacing="-0.05" class="fade" style="animation-delay:1.14s">Aug</text>
  <line x1="764" y1="234" x2="764" y2="246" stroke="#4dff9a" stroke-width="1.4" class="fade" style="animation-delay:1.2s"/>
  <rect x="760" y="236" width="8" height="8" rx="1.5" fill="#4dff9a" class="fade" style="animation-delay:1.2s"/>
  <text x="773" y="244" font-family="-apple-system, BlinkMacSystemFont, 'Segoe UI Variable Display', 'Segoe UI', Roboto, system-ui, sans-serif" font-size="9" font-weight="400" fill="#86868b" letter-spacing="-0.05" class="fade" style="animation-delay:1.22s">up</text>
  <line x1="816" y1="234" x2="816" y2="246" stroke="#ff7a6b" stroke-width="1.4" class="fade" style="animation-delay:1.2s"/>
  <rect x="812" y="236" width="8" height="8" rx="1.5" fill="#ff7a6b" class="fade" style="animation-delay:1.2s"/>
  <text x="825" y="244" font-family="-apple-system, BlinkMacSystemFont, 'Segoe UI Variable Display', 'Segoe UI', Roboto, system-ui, sans-serif" font-size="9" font-weight="400" fill="#86868b" letter-spacing="-0.05" class="fade" style="animation-delay:1.22s">down</text>
</svg>
