<svg xmlns="http://www.w3.org/2000/svg" width="100%" height="240" viewBox="0 0 880 240" fill="none" role="img" preserveAspectRatio="xMidYMid meet">
  <style>
    @media (prefers-reduced-motion: no-preference) {
      .fade { animation: fade 260ms cubic-bezier(.22, 1, .36, 1) both; }
      .rise { animation: rise 420ms cubic-bezier(.22, 1, .36, 1) both; }
      .grow { animation: grow 420ms cubic-bezier(.22, 1, .36, 1) both; }
      .draw { animation: draw 900ms cubic-bezier(.22, 1, .36, 1) both; }
      @keyframes fade { from { opacity: 0; transform: translateY(6px); } }
      @keyframes rise { from { opacity: 0; transform: translateY(12px); } }
      @keyframes grow { from { transform: scaleX(0); } }
      @keyframes draw { from { stroke-dashoffset: 1; } }
    }
  </style>
  <rect x="0.5" y="0.5" width="879" height="239" rx="20" fill="#1c1c1e" stroke="#ffffff" stroke-opacity="0.13"/>
  <text x="24" y="36" font-family="-apple-system, BlinkMacSystemFont, 'Segoe UI Variable Display', 'Segoe UI', Roboto, system-ui, sans-serif" font-size="14" font-weight="600" fill="#f5f5f7" letter-spacing="-0.2" class="fade">Contribution Activity</text>
  <text x="24" y="54" font-family="-apple-system, BlinkMacSystemFont, 'Segoe UI Variable Display', 'Segoe UI', Roboto, system-ui, sans-serif" font-size="10" font-weight="400" fill="#86868b" letter-spacing="-0.06" class="fade" style="animation-delay:0.06s">Last 30 days · 907 contributions · peak 121 in a day</text>
  <linearGradient id="fade-grad" x1="0" y1="0" x2="0" y2="1">
    <stop offset="0%" stop-color="#4dff9a" stop-opacity="0.55"/>
    <stop offset="100%" stop-color="#4dff9a" stop-opacity="0"/>
  </linearGradient>
  <line x1="46" y1="84" x2="848" y2="84" stroke="#ffffff" stroke-opacity="0.08"/>
  <text x="36" y="87.5" font-family="-apple-system, BlinkMacSystemFont, 'Segoe UI Variable Display', 'Segoe UI', Roboto, system-ui, sans-serif" font-size="9" font-weight="400" fill="#86868b" text-anchor="end" letter-spacing="-0.05">121</text>
  <line x1="46" y1="142" x2="848" y2="142" stroke="#ffffff" stroke-opacity="0.08"/>
  <text x="36" y="145.5" font-family="-apple-system, BlinkMacSystemFont, 'Segoe UI Variable Display', 'Segoe UI', Roboto, system-ui, sans-serif" font-size="9" font-weight="400" fill="#86868b" text-anchor="end" letter-spacing="-0.05">61</text>
  <line x1="46" y1="200" x2="848" y2="200" stroke="#ffffff" stroke-opacity="0.08"/>
  <text x="36" y="203.5" font-family="-apple-system, BlinkMacSystemFont, 'Segoe UI Variable Display', 'Segoe UI', Roboto, system-ui, sans-serif" font-size="9" font-weight="400" fill="#86868b" text-anchor="end" letter-spacing="-0.05">0</text>
  <path d="M 46 198.08 C 50.61 196.8, 64.44 196.48, 73.66 190.41 C 82.87 184.34, 92.09 169.8, 101.31 161.65 C 110.53 153.5, 119.75 137.53, 128.97 141.52 C 138.18 145.52, 147.4 176.35, 156.62 185.62 C 165.84 194.89, 175.06 197.44, 184.28 197.12 C 193.49 196.8, 202.71 192.33, 211.93 183.7 C 221.15 175.07, 230.37 157.34, 239.59 145.36 C 248.8 133.37, 258.02 122.03, 267.24 111.8 C 276.46 101.58, 285.68 84, 294.9 84 C 304.11 94.23, 313.33 155.42, 322.55 173.16 C 331.77 190.89, 340.99 186.42, 350.21 190.41 C 359.43 194.41, 368.64 196.17, 377.86 197.12 C 387.08 198.08, 396.3 200, 405.52 196.17 C 414.74 190.09, 423.95 165.65, 433.17 160.69 C 442.39 155.74, 451.61 164.37, 460.83 166.45 C 470.05 168.52, 479.26 174.91, 488.48 173.16 C 497.7 171.4, 506.92 162.93, 516.14 155.9 C 525.36 148.87, 534.57 132.09, 543.79 130.98 C 553.01 129.86, 562.23 144.24, 571.45 149.19 C 580.67 154.14, 589.89 153.82, 599.1 160.69 C 608.32 167.56, 617.54 190.73, 626.76 190.41 C 635.98 190.09, 645.2 158.62, 654.41 158.78 C 663.63 158.94, 672.85 184.5, 682.07 191.37 C 691.29 198.24, 700.51 198.56, 709.72 200 C 718.94 200, 728.16 200, 737.38 200 C 746.6 197.92, 755.82 191.69, 765.03 187.54 C 774.25 183.38, 783.47 173.64, 792.69 175.07 C 801.91 176.51, 811.13 195.69, 820.34 196.17 C 829.56 196.64, 843.39 180.99, 848 177.95 L 848 200 L 46 200 Z" fill="url(#fade-grad)" class="fade" style="animation-delay:0.75s"/>
  <path d="M 46 198.08 C 50.61 196.8, 64.44 196.48, 73.66 190.41 C 82.87 184.34, 92.09 169.8, 101.31 161.65 C 110.53 153.5, 119.75 137.53, 128.97 141.52 C 138.18 145.52, 147.4 176.35, 156.62 185.62 C 165.84 194.89, 175.06 197.44, 184.28 197.12 C 193.49 196.8, 202.71 192.33, 211.93 183.7 C 221.15 175.07, 230.37 157.34, 239.59 145.36 C 248.8 133.37, 258.02 122.03, 267.24 111.8 C 276.46 101.58, 285.68 84, 294.9 84 C 304.11 94.23, 313.33 155.42, 322.55 173.16 C 331.77 190.89, 340.99 186.42, 350.21 190.41 C 359.43 194.41, 368.64 196.17, 377.86 197.12 C 387.08 198.08, 396.3 200, 405.52 196.17 C 414.74 190.09, 423.95 165.65, 433.17 160.69 C 442.39 155.74, 451.61 164.37, 460.83 166.45 C 470.05 168.52, 479.26 174.91, 488.48 173.16 C 497.7 171.4, 506.92 162.93, 516.14 155.9 C 525.36 148.87, 534.57 132.09, 543.79 130.98 C 553.01 129.86, 562.23 144.24, 571.45 149.19 C 580.67 154.14, 589.89 153.82, 599.1 160.69 C 608.32 167.56, 617.54 190.73, 626.76 190.41 C 635.98 190.09, 645.2 158.62, 654.41 158.78 C 663.63 158.94, 672.85 184.5, 682.07 191.37 C 691.29 198.24, 700.51 198.56, 709.72 200 C 718.94 200, 728.16 200, 737.38 200 C 746.6 197.92, 755.82 191.69, 765.03 187.54 C 774.25 183.38, 783.47 173.64, 792.69 175.07 C 801.91 176.51, 811.13 195.69, 820.34 196.17 C 829.56 196.64, 843.39 180.99, 848 177.95" fill="none" stroke="#4dff9a" stroke-width="2" stroke-linecap="round" stroke-linejoin="round" pathLength="1" stroke-dasharray="1" stroke-dashoffset="0" class="draw" style="animation-delay:0.2s"/>
  <circle cx="46" cy="198.08" r="2.5" fill="#4dff9a" class="fade" style="animation-delay:0.25s"/>
  <circle cx="73.66" cy="190.41" r="2.5" fill="#4dff9a" class="fade" style="animation-delay:0.29s"/>
  <circle cx="101.31" cy="161.65" r="2.5" fill="#4dff9a" class="fade" style="animation-delay:0.33s"/>
  <circle cx="128.97" cy="141.52" r="2.5" fill="#4dff9a" class="fade" style="animation-delay:0.37s"/>
  <circle cx="156.62" cy="185.62" r="2.5" fill="#4dff9a" class="fade" style="animation-delay:0.41s"/>
  <circle cx="184.28" cy="197.12" r="2.5" fill="#4dff9a" class="fade" style="animation-delay:0.45s"/>
  <circle cx="211.93" cy="183.7" r="2.5" fill="#4dff9a" class="fade" style="animation-delay:0.49s"/>
  <circle cx="239.59" cy="145.36" r="2.5" fill="#4dff9a" class="fade" style="animation-delay:0.53s"/>
  <circle cx="267.24" cy="111.8" r="2.5" fill="#4dff9a" class="fade" style="animation-delay:0.57s"/>
  <circle cx="294.9" cy="84" r="2.5" fill="#4dff9a" class="fade" style="animation-delay:0.61s"/>
  <circle cx="322.55" cy="173.16" r="2.5" fill="#4dff9a" class="fade" style="animation-delay:0.65s"/>
  <circle cx="350.21" cy="190.41" r="2.5" fill="#4dff9a" class="fade" style="animation-delay:0.69s"/>
  <circle cx="377.86" cy="197.12" r="2.5" fill="#4dff9a" class="fade" style="animation-delay:0.73s"/>
  <circle cx="405.52" cy="196.17" r="2.5" fill="#4dff9a" class="fade" style="animation-delay:0.77s"/>
  <circle cx="433.17" cy="160.69" r="2.5" fill="#4dff9a" class="fade" style="animation-delay:0.81s"/>
  <circle cx="460.83" cy="166.45" r="2.5" fill="#4dff9a" class="fade" style="animation-delay:0.84s"/>
  <circle cx="488.48" cy="173.16" r="2.5" fill="#4dff9a" class="fade" style="animation-delay:0.88s"/>
  <circle cx="516.14" cy="155.9" r="2.5" fill="#4dff9a" class="fade" style="animation-delay:0.92s"/>
  <circle cx="543.79" cy="130.98" r="2.5" fill="#4dff9a" class="fade" style="animation-delay:0.96s"/>
  <circle cx="571.45" cy="149.19" r="2.5" fill="#4dff9a" class="fade" style="animation-delay:1s"/>
  <circle cx="599.1" cy="160.69" r="2.5" fill="#4dff9a" class="fade" style="animation-delay:1.04s"/>
  <circle cx="626.76" cy="190.41" r="2.5" fill="#4dff9a" class="fade" style="animation-delay:1.08s"/>
  <circle cx="654.41" cy="158.78" r="2.5" fill="#4dff9a" class="fade" style="animation-delay:1.12s"/>
  <circle cx="682.07" cy="191.37" r="2.5" fill="#4dff9a" class="fade" style="animation-delay:1.16s"/>
  <circle cx="765.03" cy="187.54" r="2.5" fill="#4dff9a" class="fade" style="animation-delay:1.28s"/>
  <circle cx="792.69" cy="175.07" r="2.5" fill="#4dff9a" class="fade" style="animation-delay:1.32s"/>
  <circle cx="820.34" cy="196.17" r="2.5" fill="#4dff9a" class="fade" style="animation-delay:1.36s"/>
  <circle cx="848" cy="177.95" r="2.5" fill="#4dff9a" class="fade" style="animation-delay:1.4s"/>
  <text x="46" y="220" font-family="-apple-system, BlinkMacSystemFont, 'Segoe UI Variable Display', 'Segoe UI', Roboto, system-ui, sans-serif" font-size="9" font-weight="400" fill="#86868b" text-anchor="middle" letter-spacing="-0.05" class="fade" style="animation-delay:0.9s">Jul 31</text>
  <text x="156.62" y="220" font-family="-apple-system, BlinkMacSystemFont, 'Segoe UI Variable Display', 'Segoe UI', Roboto, system-ui, sans-serif" font-size="9" font-weight="400" fill="#86868b" text-anchor="middle" letter-spacing="-0.05" class="fade" style="animation-delay:0.94s">Aug 4</text>
  <text x="267.24" y="220" font-family="-apple-system, BlinkMacSystemFont, 'Segoe UI Variable Display', 'Segoe UI', Roboto, system-ui, sans-serif" font-size="9" font-weight="400" fill="#86868b" text-anchor="middle" letter-spacing="-0.05" class="fade" style="animation-delay:0.98s">Aug 8</text>
  <text x="377.86" y="220" font-family="-apple-system, BlinkMacSystemFont, 'Segoe UI Variable Display', 'Segoe UI', Roboto, system-ui, sans-serif" font-size="9" font-weight="400" fill="#86868b" text-anchor="middle" letter-spacing="-0.05" class="fade" style="animation-delay:1.02s">Aug 12</text>
  <text x="488.48" y="220" font-family="-apple-system, BlinkMacSystemFont, 'Segoe UI Variable Display', 'Segoe UI', Roboto, system-ui, sans-serif" font-size="9" font-weight="400" fill="#86868b" text-anchor="middle" letter-spacing="-0.05" class="fade" style="animation-delay:1.07s">Aug 16</text>
  <text x="599.1" y="220" font-family="-apple-system, BlinkMacSystemFont, 'Segoe UI Variable Display', 'Segoe UI', Roboto, system-ui, sans-serif" font-size="9" font-weight="400" fill="#86868b" text-anchor="middle" letter-spacing="-0.05" class="fade" style="animation-delay:1.11s">Aug 20</text>
  <text x="709.72" y="220" font-family="-apple-system, BlinkMacSystemFont, 'Segoe UI Variable Display', 'Segoe UI', Roboto, system-ui, sans-serif" font-size="9" font-weight="400" fill="#86868b" text-anchor="middle" letter-spacing="-0.05" class="fade" style="animation-delay:1.15s">Aug 24</text>
  <text x="848" y="220" font-family="-apple-system, BlinkMacSystemFont, 'Segoe UI Variable Display', 'Segoe UI', Roboto, system-ui, sans-serif" font-size="9" font-weight="400" fill="#86868b" text-anchor="middle" letter-spacing="-0.05" class="fade" style="animation-delay:1.2s">Aug 29</text>
</svg>
